<?xml version="1.0" encoding="UTF-8"?>
<svg version="1.1" xmlns="http://www.w3.org/2000/svg" width="1586" height="992">
<path d="M0 0 C523.38 0 1046.76 0 1586 0 C1586 327.36 1586 654.72 1586 992 C1062.62 992 539.24 992 0 992 C0 664.64 0 337.28 0 0 Z " fill="#FDFDFD" transform="translate(0,0)"/>
<path d="M0 0 C1.05728585 -0.0049487 1.05728585 -0.0049487 2.13593102 -0.00999737 C4.49769947 -0.01942755 6.85940541 -0.02129095 9.22119141 -0.02270508 C10.89447074 -0.02682015 12.56774956 -0.03114783 14.24102783 -0.03567505 C19.68494777 -0.04752509 25.12882532 -0.04609359 30.57275391 -0.04223633 C31.49372612 -0.04182217 32.41469833 -0.041408 33.3635788 -0.04098129 C57.57027453 -0.02725759 81.77819272 0.05725306 105.97686768 0.7281189 C108.5270813 0.79750902 111.0775187 0.85913814 113.62811279 0.91275024 C117.14475755 0.99035282 120.65888929 1.09966394 124.17431641 1.21948242 C125.69064667 1.24641678 125.69064667 1.24641678 127.23760986 1.27389526 C132.82740074 1.50992571 136.84181574 2.50142896 141.63998413 5.40046692 C146.42245019 10.75711935 145.48675852 19.11238349 145.47190857 25.80433655 C145.47714525 26.9739801 145.48238193 28.14362366 145.48777729 29.34871095 C145.50015592 32.58220057 145.5036216 35.81555507 145.50318038 39.0490638 C145.50483315 42.54126909 145.5179078 46.03343521 145.52937317 49.52561951 C145.55218179 57.15346323 145.56013852 64.78127906 145.56519961 72.40915227 C145.56845983 77.17271478 145.57498405 81.93626924 145.582201 86.69982719 C145.60175735 99.89275508 145.6181686 113.0856755 145.62107754 126.27861881 C145.62126511 127.12210041 145.62145268 127.96558201 145.62164593 128.83462366 C145.62201218 130.54447361 145.62237587 132.25432356 145.62273704 133.9641735 C145.62291985 134.81292008 145.62310266 135.66166665 145.62329102 136.53613281 C145.62356184 137.81080799 145.62356184 137.81080799 145.62383813 139.11123418 C145.62738295 152.89344018 145.6544288 166.67549026 145.6917889 180.45764215 C145.729852 194.61243643 145.74923484 208.76715326 145.74953705 222.92199987 C145.75012188 230.86768006 145.75863103 238.81317395 145.78753471 246.75880623 C145.81202132 253.52108085 145.81934967 260.28310113 145.80428719 267.04540808 C145.79710834 270.49541516 145.79801685 273.94491973 145.82069778 277.39487076 C145.84102875 281.13474794 145.83068085 284.87331535 145.81248474 288.61317444 C145.82568471 289.70373376 145.83888468 290.79429309 145.85248464 291.91789967 C145.7612246 300.10604195 145.7612246 300.10604195 142.78433323 303.80351925 C138.94408356 307.28026677 136.49655493 307.5370566 131.45556641 307.50463867 C127.88634503 306.93652731 126.36045156 304.89778796 124.19775391 302.14526367 C123.53775391 301.48526367 122.87775391 300.82526367 122.19775391 300.14526367 C121.95558191 297.63616993 121.83725117 295.23047294 121.80297852 292.71630859 C121.78476579 291.94469769 121.76655306 291.17308678 121.74778843 290.37809372 C121.68920778 287.79408231 121.6446516 285.21002091 121.60009766 282.62573242 C121.56164965 280.7992634 121.52236716 278.97281178 121.4822998 277.14637756 C121.37694386 272.22929158 121.28380268 267.31204211 121.19300461 262.39466858 C121.0967665 257.29218601 120.98937395 252.18993742 120.88354492 247.08764648 C120.43266476 225.10123867 120.04473853 203.11367024 119.69552612 181.12542725 C119.63585206 177.43228231 119.5727052 173.73921207 119.50854492 170.04614258 C119.46853595 167.70809285 119.4287353 165.37003954 119.38916016 163.03198242 C119.36107018 161.37377472 119.36107018 161.37377472 119.33241272 159.68206787 C119.23391083 153.52704022 119.17855623 147.37390803 119.16963196 141.21810913 C119.16075741 137.68141928 119.12725479 134.145241 119.08865356 130.60876465 C119.07827496 129.04149583 119.08006188 127.47408578 119.09567261 125.90686035 C119.11628769 123.82985414 119.09563356 121.75720169 119.06494141 119.68041992 C119.06606934 118.54999268 119.06719727 117.41956543 119.06835938 116.25488281 C117.98185785 112.3741285 116.47603007 110.73454093 113.32058716 108.30455017 C109.5123435 106.22485528 105.83265289 106.28827074 101.57275391 106.34838867 C100.66702637 106.34264832 99.76129883 106.33690796 98.828125 106.33099365 C96.92201217 106.32692883 95.01581435 106.33787391 93.10986328 106.36303711 C90.20495734 106.39518396 87.30561341 106.36330075 84.40087891 106.32495117 C82.54149172 106.32891635 80.68210798 106.33660438 78.82275391 106.34838867 C77.96214355 106.33624329 77.1015332 106.3240979 76.21484375 106.31158447 C70.60870584 106.44124367 67.60782569 107.66033836 63.58535767 111.60263062 C62.04974449 113.30980936 60.6948206 114.96054682 59.52197266 116.93823242 C59.09682373 117.63561523 58.6716748 118.33299805 58.23364258 119.05151367 C57.78867432 119.80432617 57.34370605 120.55713867 56.88525391 121.33276367 C55.83652559 123.04706022 54.78422837 124.75917688 53.72900391 126.46948242 C53.16310547 127.38777832 52.59720703 128.30607422 52.01416016 129.25219727 C48.74719566 134.45562862 45.30988443 139.54479838 41.88525391 144.64526367 C40.34887561 146.93741564 38.8139183 149.23051473 37.27978516 151.52416992 C36.88052322 152.12107635 36.48126129 152.71798279 36.06990051 153.33297729 C29.7097578 162.85529754 23.44460601 172.44065345 17.1652832 182.01635742 C16.23606949 183.43306796 15.30679026 184.84973553 14.37744141 186.26635742 C13.70442993 187.2922422 13.70442993 187.2922422 13.01782227 188.33885193 C9.72293876 193.35659627 6.39704667 198.35308408 3.06201172 203.34423828 C-0.11115158 208.11187874 -3.23643018 212.91062782 -6.36474609 217.70776367 C-13.7743651 229.05535619 -21.2109988 240.38500827 -28.65734863 251.70852661 C-33.73243246 259.42619517 -38.80603481 267.1447614 -43.86083984 274.87573242 C-52.31330571 287.80163483 -60.80128909 300.70086735 -69.40307617 313.52807617 C-73.30089926 319.35050439 -77.1450429 325.20261575 -80.94287109 331.09057617 C-86.95430652 340.40961074 -93.05925447 349.66605044 -99.17022705 358.92001343 C-112.02164276 378.38302094 -124.82110203 397.87708651 -137.47607422 417.46850586 C-143.80118436 427.25079047 -150.19245293 436.99008831 -156.57177734 446.73706055 C-159.48033362 451.18114664 -162.38756798 455.62609695 -165.29443359 460.07128906 C-166.71087169 462.23729141 -168.12753661 464.40314546 -169.54443359 466.56884766 C-173.0232383 471.88768464 -176.49641478 477.21005491 -179.95849609 482.53979492 C-180.62671387 483.56758057 -181.29493164 484.59536621 -181.98339844 485.65429688 C-183.23000851 487.57243554 -184.47524946 489.49146511 -185.71875 491.41162109 C-199.3082476 512.31393084 -199.3082476 512.31393084 -204.80224609 514.14526367 C-206.94153763 514.23992722 -209.08371321 514.27320523 -211.22509766 514.2746582 C-211.87560341 514.27637937 -212.52610916 514.27810053 -213.19632721 514.27987385 C-215.36186703 514.28421536 -217.5273302 514.28125794 -219.69287109 514.27807617 C-221.22047961 514.27921772 -222.74808791 514.28069399 -224.2756958 514.28248596 C-228.35877011 514.28549545 -232.44180312 514.28127656 -236.52487183 514.27444077 C-239.04514531 514.27027541 -241.56541797 514.26731213 -244.08569336 514.26455688 C-282.56489973 514.21678037 -282.56489973 514.21678037 -298.92565918 513.88079834 C-300.49076037 513.84916511 -302.0559572 513.82191249 -303.62121582 513.79937744 C-321.60583971 513.52063403 -321.60583971 513.52063403 -328.67724609 507.83276367 C-333.18853663 502.12730799 -334.16742906 497.78080051 -334.49365234 490.63354492 C-332.73600936 481.76588851 -326.37332557 473.73379178 -321.34912109 466.35620117 C-320.10960106 464.51642775 -318.87068888 462.67624467 -317.63232422 460.83569336 C-316.68353394 459.42894348 -316.68353394 459.42894348 -315.71557617 457.99377441 C-312.59486828 453.34775434 -309.51872999 448.67261048 -306.44287109 443.99682617 C-305.53015442 442.61089264 -305.53015442 442.61089264 -304.59899902 441.19696045 C-302.74953222 438.3884226 -300.90080863 435.57939678 -299.05224609 432.77026367 C-291.00242785 420.53932077 -282.94037274 408.31765879 -274.80224609 396.14526367 C-273.81759552 394.66888493 -272.83316576 393.19235884 -271.84912109 391.71557617 C-267.50016276 385.19213867 -263.15120443 378.66870117 -258.80224609 372.14526367 C-255.77479005 373.32173623 -252.86573145 374.57514188 -249.98974609 376.08276367 C-239.88033601 381.16591921 -230.66860275 382.33009639 -219.42724609 382.39526367 C-218.54552734 382.41588867 -217.66380859 382.43651367 -216.75537109 382.45776367 C-202.12374495 382.54357966 -188.2522251 375.9498624 -177.60302734 366.11401367 C-166.71750712 354.66866669 -161.79112605 339.16173816 -161.30224609 323.58276367 C-161.80615429 308.14041586 -167.1492897 293.66191761 -178.53662109 282.96948242 C-182.69606837 279.62041022 -187.20539139 276.84929585 -191.80224609 274.14526367 C-191.16537738 270.34199138 -189.4048997 267.79765954 -187.23974609 264.64526367 C-186.51400391 263.57920898 -185.78826172 262.5131543 -185.04052734 261.41479492 C-184.30189453 260.33584961 -183.56326172 259.2569043 -182.80224609 258.14526367 C-181.50759927 256.20975375 -180.2158829 254.27228016 -178.92724609 252.33276367 C-178.25822266 251.32987305 -177.58919922 250.32698242 -176.89990234 249.29370117 C-175.48864848 247.17550635 -174.07983575 245.0556833 -172.67333984 242.93432617 C-167.664319 235.38545885 -162.59096719 227.88211205 -157.48974609 220.39526367 C-149.38822874 208.50485582 -141.34289256 196.57689752 -133.30224609 184.64526367 C-120.41015439 165.51688828 -107.5078415 146.39650201 -94.41162109 127.40698242 C-91.17942181 122.71378903 -88.01596361 117.97730744 -84.86743164 113.22753906 C-82.86318474 110.23621419 -80.8209262 107.27577077 -78.76318359 104.32104492 C-73.79276633 97.16281665 -68.91245916 89.94470285 -64.03765869 82.72116089 C-61.49494595 78.95368954 -58.94954477 75.18803624 -56.40380859 71.42260742 C-55.90891937 70.69060623 -55.41403015 69.95860504 -54.90414429 69.204422 C-51.26170093 63.81918149 -47.60427115 58.44446469 -43.92724609 53.08276367 C-39.01880371 45.92465241 -34.12361482 38.75767125 -29.23974609 31.58276367 C-28.52052979 30.52694092 -27.80131348 29.47111816 -27.06030273 28.38330078 C-23.71890834 23.46970964 -20.39467149 18.54672077 -17.12255859 13.58666992 C-16.56769775 12.74628174 -16.01283691 11.90589355 -15.44116211 11.04003906 C-14.41650786 9.48345961 -13.39592746 7.92418808 -12.38012695 6.36181641 C-8.45966052 0.40166217 -7.03041236 0.02107949 0 0 Z " fill="#010101" transform="translate(1032.80224609375,223.854736328125)"/>
<path d="M0 0 C0.74701172 -0.02900391 1.49402344 -0.05800781 2.26367188 -0.08789062 C7.54139405 -0.14812802 10.50278229 0.81550334 14.6875 4.3125 C15.98948669 6.91647339 15.81103289 8.80438076 15.80895996 11.72158813 C15.81047562 12.87307468 15.81199127 14.02456123 15.81355286 15.21094131 C15.80998276 16.48276134 15.80641266 17.75458138 15.80273438 19.06494141 C15.80232597 20.41505807 15.80231038 21.76517491 15.80265808 23.1152916 C15.80212675 26.81158224 15.79489213 30.50783308 15.78621864 34.20411253 C15.7812325 36.54728575 15.77809905 38.890454 15.77561951 41.23363113 C15.73812898 76.58012075 15.50425799 111.92549635 15.24211884 147.27091813 C15.17961165 155.71235784 15.12011331 164.15381816 15.06074238 172.59528041 C14.93943441 189.83437666 14.81474441 207.07344656 14.6875 224.3125 C15.3475 224.3125 16.0075 224.3125 16.6875 224.3125 C16.90664062 224.88097656 17.12578125 225.44945312 17.3515625 226.03515625 C21.0205087 234.96889109 25.17312999 240.03575014 33.9296875 244.26953125 C41.70309722 247.20933351 48.8173909 247.64137532 57.0625 247.7265625 C58.2275708 247.74592865 59.3926416 247.7652948 60.59301758 247.7852478 C64.29110538 247.84472524 67.98922485 247.89130164 71.6875 247.9375 C74.20444018 247.97570905 76.7213677 248.01476246 79.23828125 248.0546875 C85.38790787 248.15040053 91.53761163 248.23554014 97.6875 248.3125 C97.66131592 247.3337793 97.63513184 246.35505859 97.6081543 245.34667969 C97.51752755 241.70905495 97.46020724 238.07152954 97.4128418 234.43310547 C97.38772552 232.85969249 97.35362528 231.28639588 97.31030273 229.71337891 C97.24951601 227.44925228 97.22126418 225.18666978 97.19921875 222.921875 C97.17341232 222.22068542 97.1476059 221.51949585 97.12101746 220.79705811 C97.11897438 217.22445394 97.36652332 215.65131273 99.85791016 213.02148438 C102.67772285 211.31840509 105.4759735 209.77863825 108.44921875 208.359375 C109.55998779 207.82626709 110.67075684 207.29315918 111.81518555 206.74389648 C112.98992432 206.18903564 114.16466309 205.6341748 115.375 205.0625 C116.59234857 204.48215585 117.80955139 203.90150586 119.02661133 203.32055664 C126.61540949 199.70972236 134.24317186 196.1918919 141.95385742 192.84863281 C146.02000804 191.08368589 149.95143133 189.17578175 153.85205078 187.06665039 C157.07154044 185.7438247 159.44254803 186.33289186 162.6875 187.3125 C165.39317626 189.13589052 167.22478718 190.38707436 168.6875 193.3125 C168.61911748 195.97009332 168.48575349 198.59849745 168.3125 201.25 C167.70963885 211.34994045 167.42202811 221.45355981 167.1484375 231.56640625 C167.10324076 233.1976355 167.05791288 234.82886112 167.01245117 236.46008301 C166.90262508 240.41084855 166.79456368 244.36165867 166.6875 248.3125 C167.74350403 248.30361755 168.79950806 248.29473511 169.88751221 248.2855835 C179.83431962 248.20453319 189.78106013 248.14455168 199.72812271 248.10525131 C204.8421631 248.08436736 209.95593713 248.05603484 215.06982422 248.01074219 C220.00408296 247.96731345 224.93808535 247.94336898 229.87252045 247.93299103 C231.75603014 247.92559432 233.63952564 247.91115039 235.52292633 247.88957977 C238.15914848 247.86058508 240.79430838 247.85654231 243.43066406 247.85839844 C244.21109573 247.84401733 244.9915274 247.82963623 245.79560852 247.81481934 C249.3191294 247.84170235 251.30172547 248.02351423 254.1605835 250.1651001 C255.6875 252.3125 255.6875 252.3125 256.375 255.125 C254.77839613 262.52743614 246.87222614 266.81113446 241.14941406 271.13012695 C236.41079977 274.7133548 231.82075778 278.45570981 227.25 282.25 C221.92200627 286.66575213 216.56882891 291.04006175 211.125 295.3125 C210.32267944 295.94273071 210.32267944 295.94273071 209.50415039 296.58569336 C208.48362625 297.38285391 207.45472909 298.16944985 206.41647339 298.94337463 C204.66223642 300.27783692 204.66223642 300.27783692 203.14784241 301.85595703 C196.74580622 307.75210007 189.98429824 307.00441982 181.6875 306.6875 C180.32688219 306.6573505 178.96619974 306.62998348 177.60546875 306.60546875 C174.29781075 306.53509305 170.99350292 306.43666613 167.6875 306.3125 C167.68972061 306.98281754 167.69194122 307.65313507 167.69422913 308.34376526 C167.71470361 314.82392382 167.72970494 321.30407272 167.73931217 327.78425694 C167.74441807 331.11164381 167.75187534 334.43898215 167.76293945 337.76635742 C167.81176852 352.86028299 167.66024592 367.91128097 167.11036682 382.99707031 C166.63952057 396.29824927 166.41495362 409.60291776 166.1875 422.91015625 C166.15668996 424.69204314 166.15668996 424.69204314 166.12525749 426.50992775 C165.93264624 437.66058776 165.74610263 448.81134651 165.5625 459.9621582 C165.4607965 466.12526011 165.35538174 472.28829004 165.24780273 478.45129204 C165.20809093 480.7702537 165.16980566 483.0892403 165.13305664 485.40825081 C164.58825346 519.77570856 164.58825346 519.77570856 160.6875 526.3125 C157.33713115 528.54607923 156.18945663 528.57617103 152.26977539 528.61889648 C151.16175064 528.63488388 150.05372589 528.65087128 148.91212463 528.66734314 C147.71522507 528.67270584 146.5183255 528.67806854 145.28515625 528.68359375 C144.05590927 528.69262222 142.82666229 528.7016507 141.56016541 528.71095276 C138.95851076 528.72547089 136.35681948 528.73434585 133.75512695 528.73803711 C131.08643076 528.74235367 128.41869496 528.76325898 125.75024414 528.79956055 C121.90741394 528.84823402 118.0657623 528.86381058 114.22265625 528.87109375 C113.02778091 528.89062607 111.83290558 528.91015839 110.6018219 528.93028259 C109.49064499 528.92420486 108.37946808 528.91812714 107.23461914 528.91186523 C106.25771622 528.91693588 105.28081329 528.92200653 104.27430725 528.92723083 C100.54338288 528.04061114 99.69415278 526.55213763 97.6875 523.3125 C97.11896117 520.34939571 97.16441976 517.44467919 97.20648193 514.43510437 C97.20135538 513.09337456 97.20135538 513.09337456 97.19612527 511.7245391 C97.18953632 508.72708489 97.21153942 505.73052602 97.23339844 502.7331543 C97.23452669 500.58466106 97.23389348 498.43616629 97.23162842 496.28767395 C97.2304795 490.45331054 97.25401789 484.61927524 97.28192425 478.78498816 C97.30690811 472.68844749 97.30927753 466.59189952 97.31402588 460.49531555 C97.32646449 448.94980408 97.35929822 437.40444389 97.39942384 425.85899907 C97.44411389 412.71526093 97.46612165 399.57151562 97.48620558 386.42772043 C97.52802996 359.38922971 97.59839935 332.35087333 97.6875 305.3125 C96.01405769 305.3324855 96.01405769 305.3324855 94.30680847 305.35287476 C83.75889119 305.47485612 73.21111825 305.564616 62.66265392 305.62337303 C57.24037819 305.65459714 51.81867488 305.6969065 46.39672852 305.76513672 C41.15766642 305.83064793 35.91915259 305.86627304 30.6797123 305.88176346 C28.68750702 305.89279299 26.6953295 305.9143308 24.7033596 305.94688034 C12.70352748 306.13504536 2.94022472 306.18455205 -6.28791809 297.44076538 C-10.3125 293.02553686 -10.3125 293.02553686 -10.3125 290.3125 C-10.9725 290.3125 -11.6325 290.3125 -12.3125 290.3125 C-14.96061676 282.98102132 -15.74511847 276.45930969 -15.70018005 268.69680786 C-15.70556559 267.56810898 -15.71095113 266.43941009 -15.71649987 265.27650821 C-15.73074121 261.51642003 -15.7236851 257.75668579 -15.71655273 253.99658203 C-15.7206167 251.29226271 -15.72912275 248.58796116 -15.73735046 245.88365173 C-15.75449599 239.31566384 -15.75538793 232.74777178 -15.75013756 226.17976733 C-15.74608934 220.84297828 -15.74754712 215.50621748 -15.75288582 210.16942978 C-15.75400845 209.02835795 -15.75400845 209.02835795 -15.75515376 207.86423417 C-15.75668528 206.31873743 -15.75822362 204.7732407 -15.75976873 203.22774397 C-15.77347653 188.75624191 -15.76806653 174.28479401 -15.75658352 159.8132932 C-15.74663661 146.56989813 -15.75961996 133.32664247 -15.78351771 120.0832689 C-15.80788423 106.47756915 -15.81752363 92.87193443 -15.81086498 79.2662133 C-15.80736941 71.63031636 -15.80962797 63.99452684 -15.82711601 56.35864639 C-15.84180672 49.86392893 -15.84251386 43.3693947 -15.8250451 36.87468095 C-15.81650968 33.56064602 -15.81660004 30.24700774 -15.82969666 26.93297768 C-15.84280185 23.34376844 -15.83145153 19.75545987 -15.81370544 16.16629028 C-15.82331045 15.11475206 -15.83291546 14.06321385 -15.84281152 12.97981083 C-15.77105766 5.96306244 -15.77105766 5.96306244 -13.46867466 2.69663811 C-9.17518842 -0.05952911 -4.9358814 0.06290418 0 0 Z " fill="#020202" transform="translate(1207.3125,225.6875)"/>
<path d="M0 0 C10.23 0 20.46 0 31 0 C31 47.19 31 94.38 31 143 C21.1 143 11.2 143 1 143 C0.67 138.71 0.34 134.42 0 130 C-0.94875 131.216875 -1.8975 132.43375 -2.875 133.6875 C-8.71126278 140.37611759 -17.62082904 144.58946843 -26.48046875 145.265625 C-40.91660914 145.2047772 -51.8240489 143.88525727 -62.75 133.75 C-75.88121053 119.63008656 -77.69361204 101.77001839 -77.13183594 83.37011719 C-76.41381903 70.46176874 -70.22808037 59.50405414 -61.5 50.23046875 C-50.32290963 40.25840843 -37.80627032 39.04415329 -23.50195312 39.75732422 C-14.8051439 40.60086719 -8.04315491 44.95684509 -2 51 C-1.67 51.66 -1.34 52.32 -1 53 C-0.67 35.51 -0.34 18.02 0 0 Z " fill="#060606" transform="translate(657,461)"/>
<path d="M0 0 C11.01422456 10.53318162 16.60000594 22.568096 17.171875 37.68359375 C17.49583042 54.98445328 13.46425435 68.55138459 1.32421875 81.3828125 C-10.72743459 92.75493647 -24.60182926 95.96984075 -40.71875 95.85546875 C-41.82025391 95.86320313 -42.92175781 95.8709375 -44.05664062 95.87890625 C-49.44255025 95.86590466 -54.01085659 95.77036792 -59.03125 93.60546875 C-59.83046875 93.33347656 -60.6296875 93.06148437 -61.453125 92.78125 C-73.57794616 88.28530121 -83.53532086 80.42817474 -89.78125 68.98046875 C-97.4436836 52.17506354 -98.17814772 34.94008297 -92.03125 17.60546875 C-84.63734346 2.40584316 -72.55560874 -5.50782284 -57.20703125 -11.4140625 C-37.79618168 -17.40683401 -15.7770094 -12.46302418 0 0 Z " fill="#050404" transform="translate(851.03125,507.39453125)"/>
<path d="M0 0 C10.88601882 7.99670015 16.57492754 16.82847481 18.9140625 30.140625 C18.9140625 31.460625 18.9140625 32.780625 18.9140625 34.140625 C9.3440625 34.140625 -0.2259375 34.140625 -10.0859375 34.140625 C-11.4059375 30.840625 -12.7259375 27.540625 -14.0859375 24.140625 C-21.58528116 16.5024046 -28.79520437 14.02059313 -39.3984375 13.890625 C-46.87435248 13.89515366 -51.8572996 14.8050146 -58.0234375 19.265625 C-60.81247995 23.15338114 -61.50114081 26.38614008 -61.0859375 31.140625 C-59.45008397 36.11515034 -56.64345769 38.73851322 -52.0859375 41.140625 C-50.02626757 41.95335962 -47.93848031 42.69629691 -45.8359375 43.390625 C-44.89331055 43.70205444 -44.89331055 43.70205444 -43.93164062 44.01977539 C-38.61735897 45.73568957 -33.24560432 47.21545261 -27.85864258 48.68432617 C7.45167138 58.32782184 7.45167138 58.32782184 17.86328125 73.109375 C19.58983845 76.4469577 19.78081278 79.40963291 19.9140625 83.140625 C20.5740625 83.140625 21.2340625 83.140625 21.9140625 83.140625 C22.44721259 97.41719968 21.77757402 109.91048237 11.9140625 121.140625 C6.67615673 126.69367448 0.87827187 130.11464266 -6.0859375 133.140625 C-6.78976562 133.45 -7.49359375 133.759375 -8.21875 134.078125 C-17.05395094 137.68150107 -26.36493466 137.35052483 -35.7734375 137.390625 C-36.96388672 137.41125 -38.15433594 137.431875 -39.38085938 137.453125 C-56.7322348 137.52860679 -72.30935986 132.72211252 -84.96875 120.45703125 C-92.99207592 111.67874293 -98.0859375 101.06438787 -98.0859375 89.140625 C-88.5159375 89.140625 -78.9459375 89.140625 -69.0859375 89.140625 C-67.7659375 92.770625 -66.4459375 96.400625 -65.0859375 100.140625 C-60.80503293 106.5041318 -55.26123638 109.65707235 -48.0859375 112.140625 C-44.01111653 112.57590659 -39.93179225 112.51086791 -35.8359375 112.515625 C-34.74152344 112.54011719 -33.64710938 112.56460938 -32.51953125 112.58984375 C-24.95681602 112.61701518 -18.31212676 111.78113957 -12.40527344 106.69287109 C-9.15633232 102.87037524 -9.68921372 97.76818647 -9.7578125 93.0234375 C-9.89632648 89.96485124 -9.89632648 89.96485124 -11.9609375 87.140625 C-19.82563868 82.10721624 -28.83767264 80.01856614 -37.80627441 77.76339722 C-75.86715204 68.13244818 -75.86715204 68.13244818 -86.0859375 53.140625 C-92.16642719 42.73927287 -92.68560264 30.77665506 -90.5078125 19.01953125 C-86.61550153 7.96182964 -76.90132197 0.17523373 -66.80078125 -5.0390625 C-46.07204229 -14.78121426 -18.91383058 -12.42514418 0 0 Z " fill="#050505" transform="translate(350.0859375,468.859375)"/>
<path d="M0 0 C9.9 0 19.8 0 30 0 C30.02578125 4.65996094 30.0515625 9.31992187 30.078125 14.12109375 C30.10331632 17.08794425 30.12966653 20.05469511 30.16015625 23.02148438 C30.20835347 27.72192656 30.2524494 32.42213783 30.27099609 37.12280273 C30.28623312 40.91619238 30.32080119 44.70897451 30.36830902 48.50209236 C30.38305077 49.94317379 30.39103685 51.384342 30.39188385 52.82549858 C30.40127373 60.7971374 30.49420033 68.11084233 35 75 C37.94372458 77.77551175 40.39444308 78.19323447 44.3125 78.375 C51.92994088 78.08396821 57.58987897 75.41012103 63 70 C66.88591377 64.47529831 68.10576947 59.78569798 68.20532227 53.12988281 C68.22526749 51.94896057 68.24521271 50.76803833 68.26576233 49.55133057 C68.28247482 48.28142273 68.29918732 47.01151489 68.31640625 45.703125 C68.3475779 43.74726471 68.3475779 43.74726471 68.37937927 41.75189209 C68.43445236 38.29304192 68.4839264 34.8341336 68.53222656 31.37518311 C68.58254972 27.84251771 68.63812809 24.30993525 68.69335938 20.77734375 C68.80125562 13.85162641 68.90039306 6.9258614 69 0 C78.9 0 88.8 0 99 0 C99 33.33 99 66.66 99 101 C89.1 101 79.2 101 69 101 C68.67 95.72 68.34 90.44 68 85 C66.5459375 87.041875 66.5459375 87.041875 65.0625 89.125 C59.46201935 96.29181226 52.05553421 101.39250872 43 103 C31.49460701 103.92043144 20.00057397 103.43913336 10.7890625 95.80078125 C5.61078003 90.5885799 2.31507436 85.40424758 2 78 C1.34 78 0.68 78 0 78 C0 52.26 0 26.52 0 0 Z " fill="#040404" transform="translate(466,503)"/>
<path d="M0 0 C0 10.89 0 21.78 0 33 C8.58 33 17.16 33 26 33 C26 40.59 26 48.18 26 56 C17.42 56 8.84 56 0 56 C0.07407424 62.44190447 0.15697467 68.88243972 0.26245117 75.32373047 C0.2956531 77.51376188 0.3236997 79.70387789 0.34643555 81.89404297 C0.38006809 85.0469153 0.43238948 88.19901573 0.48828125 91.3515625 C0.49467117 92.32678864 0.5010611 93.30201477 0.50764465 94.30679321 C0.6231184 99.67674845 1.1815068 103.27798097 4 108 C4 108.66 4 109.32 4 110 C11.60186486 111.29393444 18.36934259 111.27177624 26 110 C26 117.92 26 125.84 26 134 C12.69428546 136.66114291 -2.91696519 137.96627088 -15.6171875 131.7109375 C-23.55196301 126.11168082 -27.5091511 118.21332899 -30 109 C-30.4884859 104.76199584 -30.47042089 100.59346245 -30.390625 96.33203125 C-30.38496521 95.17120529 -30.37930542 94.01037933 -30.37347412 92.81437683 C-30.35127982 89.14664539 -30.30111402 85.47993069 -30.25 81.8125 C-30.22991316 79.30925901 -30.21166625 76.80600254 -30.1953125 74.30273438 C-30.15147041 68.20143772 -30.08256033 62.10089058 -30 56 C-36.27 56 -42.54 56 -49 56 C-49 48.41 -49 40.82 -49 33 C-42.73 33 -36.46 33 -30 33 C-30 25.41 -30 17.82 -30 10 C-22.625 7.25 -22.625 7.25 -20.22021484 6.35400391 C-15.43845966 4.56331503 -10.70701263 2.68168725 -6.015625 0.6640625 C-4 0 -4 0 0 0 Z " fill="#060505" transform="translate(426,470)"/>
<path d="M0 0 C10.23 0 20.46 0 31 0 C31 33.33 31 66.66 31 101 C20.77 101 10.54 101 0 101 C0 67.67 0 34.34 0 0 Z " fill="#090808" transform="translate(710,503)"/>
<path d="M0 0 C6.45467524 5.18110703 11.78623531 11.98605821 12.7421875 20.3984375 C13.58939783 31.76345409 11.02679432 41.52378959 3.7421875 50.3984375 C-1.29880328 55.31340352 -6.6933296 56.68942439 -13.6328125 56.7734375 C-20.42069818 56.64215871 -24.87625177 55.44105391 -29.93359375 50.890625 C-35.61056248 44.83331345 -38.47249634 38.46483831 -38.6328125 30.1484375 C-38.54590119 27.89664456 -38.42001221 25.64606208 -38.2578125 23.3984375 C-38.18691406 22.26277344 -38.11601563 21.12710938 -38.04296875 19.95703125 C-37.23088738 12.08257931 -35.20310641 7.62308973 -29.2578125 2.3984375 C-28.3709375 1.5940625 -27.4840625 0.7896875 -26.5703125 -0.0390625 C-19.55648913 -4.77813235 -7.11809776 -4.30751839 0 0 Z " fill="#F5F5F5" transform="translate(825.2578125,522.6015625)"/>
<path d="M0 0 C5.75282421 4.09733523 9.84422465 8.23853111 11.5546875 15.28515625 C13.32636047 26.08614497 12.36186693 37.8018828 6 47 C-0.27422737 53.02997521 -7.42825551 54.60688327 -15.9609375 54.4375 C-21.83054792 53.59251752 -25.9455213 50.58320484 -29.59375 45.99609375 C-30.87542842 44.03259222 -31.98602228 42.11347163 -33 40 C-33.36609375 39.26265625 -33.7321875 38.5253125 -34.109375 37.765625 C-35.28657992 34.11009394 -35.34188663 30.61345097 -35.3125 26.8125 C-35.30686035 26.05727051 -35.3012207 25.30204102 -35.29541016 24.52392578 C-35.10727662 15.83439187 -33.68591359 8.86049078 -27.546875 2.40234375 C-19.88812241 -4.54081832 -8.88148736 -4.96524097 0 0 Z " fill="#F9F9F9" transform="translate(646,528)"/>
<path d="M0 0 C5.8315955 2.67839459 8.47293359 7.2238482 11 13 C13.46270148 23.27540964 12.24993258 33.15012136 7.125 42.375 C3.42754516 46.94244422 -0.77839813 50.6042032 -6.734375 51.3359375 C-13.38529619 51.42208933 -18.50520058 50.95890368 -24 47 C-24.87978516 46.37544922 -24.87978516 46.37544922 -25.77734375 45.73828125 C-27 44 -27 44 -26.87109375 41.08984375 C-25.98614257 37.95084653 -25.01739964 36.14296753 -23.0625 33.5625 C-19.96227557 29.34010845 -17.00898381 25.05835502 -14.125 20.6875 C-9.51000152 13.72548575 -4.78140907 6.84873329 0 0 Z " fill="#070606" transform="translate(822,525)"/>
<path d="M0 0 C10.56 0 21.12 0 32 0 C32 10.89 32 21.78 32 33 C21.44 33 10.88 33 0 33 C0 22.11 0 11.22 0 0 Z " fill="#0D0D0D" transform="translate(710,457)"/>
<path d="M0 0 C5.59138183 10.06448729 3.70263816 23.51772509 0.82958984 34.21899414 C-3.66486079 49.59227192 -12.56426996 61.55288242 -26.4375 69.671875 C-36.06834242 74.66347016 -45.27725206 76.31726996 -56 76.125 C-56.96550781 76.11597656 -57.93101562 76.10695313 -58.92578125 76.09765625 C-61.28412099 76.07430635 -63.64192286 76.04156047 -66 76 C-66 75.67 -66 75.34 -66 75 C-59.4 75 -52.8 75 -46 75 C-46 74.34 -46 73.68 -46 73 C-52.6 73 -59.2 73 -66 73 C-66 72.67 -66 72.34 -66 72 C-64.69546875 71.96261719 -63.3909375 71.92523437 -62.046875 71.88671875 C-45.19884649 71.3024687 -29.74763658 69.34752671 -16.6875 57.4375 C-4.49350106 44.0809376 -1.54246196 29.48664211 -2.02148438 11.92016602 C-2.05532227 10.47468384 -2.05532227 10.47468384 -2.08984375 9 C-2.11941162 8.13375 -2.14897949 7.2675 -2.17944336 6.375 C-1.98431069 3.79234618 -1.3049645 2.21456288 0 0 Z " fill="#E0E0E1" transform="translate(869,531)"/>
<path d="M0 0 C1.32 0.33 2.64 0.66 4 1 C2.66067274 9.43776173 -0.34797838 15.43927892 -6.5 21.4375 C-13.21090499 25.63181562 -20.31199 25.76035264 -28 25 C-33.44387935 23.41398791 -36.83251505 20.75122743 -40 16 C-35.23385049 16 -33.81399716 17.3220871 -30 20 C-24.49601666 21.83466111 -18.1287765 22.0940493 -12.609375 20.1640625 C-6.81357226 16.86797621 -3.30346072 12.00592378 -1.25390625 5.70703125 C-0.76973917 3.82044919 -0.37541371 1.91119705 0 0 Z " fill="#E4E4E5" transform="translate(833,554)"/>
<path d="M0 0 C0.66 0.33 1.32 0.66 2 1 C1.78515625 2.8671875 1.78515625 2.8671875 1 5 C-1.00390625 6.1953125 -1.00390625 6.1953125 -3.5625 7.125 C-4.38878906 7.43695312 -5.21507812 7.74890625 -6.06640625 8.0703125 C-13.6729169 10.48089777 -20.03823447 11.26776269 -28 11.125 C-28.96550781 11.11597656 -29.93101562 11.10695313 -30.92578125 11.09765625 C-33.28412099 11.07430635 -35.64192286 11.04156047 -38 11 C-38 10.67 -38 10.34 -38 10 C-31.4 10 -24.8 10 -18 10 C-18 9.34 -18 8.68 -18 8 C-24.6 8 -31.2 8 -38 8 C-38 7.67 -38 7.34 -38 7 C-36.69546875 6.96261719 -35.3909375 6.92523437 -34.046875 6.88671875 C-21.93651237 6.46240392 -10.89567313 5.7345648 0 0 Z " fill="#D4D4D5" transform="translate(841,596)"/>
<path d="M0 0 C0.52207031 0.18175781 1.04414062 0.36351562 1.58203125 0.55078125 C4.04678556 1.39250996 6.52302624 2.19498353 9 3 C9.7734375 3.27457031 10.546875 3.54914062 11.34375 3.83203125 C20.64645888 6.82008489 30.31504792 6.72491321 40 7 C40 7.66 40 8.32 40 9 C9.4607005 10.23833716 9.4607005 10.23833716 -2 3 C-1.34 2.67 -0.68 2.34 0 2 C0 1.34 0 0.68 0 0 Z " fill="#F8F8F8" transform="translate(783,597)"/>
<path d="M0 0 C0.33 0.99 0.66 1.98 1 3 C-3.44720244 11.04917635 -11.10176768 20.65411996 -20 24 C-20.99 23.67 -21.98 23.34 -23 23 C-20.13832394 20.04889656 -17.21577005 17.32632101 -14.0625 14.6875 C-10.60418633 11.71113588 -7.98263064 8.56269211 -5.421875 4.796875 C-3.82997873 2.78513796 -2.10176419 1.45506752 0 0 Z " fill="#E9E8E9" transform="translate(864,575)"/>
<path d="M0 0 C1.96093574 0.95466609 3.8663967 1.91680158 5.71875 3.0703125 C12.11375421 6.85682815 19.16013856 7.06573108 26.359375 5.48046875 C26.90078125 5.32191406 27.4421875 5.16335938 28 5 C27.6875 6.9375 27.6875 6.9375 27 9 C20.61057915 11.12980695 12.59990967 11.19604264 6.4375 8.3125 C3.2226984 6.41624282 1.08081265 4.12121898 -1 1 C-0.67 0.67 -0.34 0.34 0 0 Z " fill="#E4E4E4" transform="translate(794,569)"/>
<path d="M0 0 C5 1.66666667 10 3.33333333 15 5 C14.01 5.495 14.01 5.495 13 6 C13 6.66 13 7.32 13 8 C13.99 8.33 14.98 8.66 16 9 C11.51006131 8.41347648 7.77456816 7.2356462 3.625 5.4375 C2.56539062 4.98246094 1.50578125 4.52742187 0.4140625 4.05859375 C-0.38257813 3.70925781 -1.17921875 3.35992188 -2 3 C-1.34 2.67 -0.68 2.34 0 2 C0 1.34 0 0.68 0 0 Z " fill="#DADBD9" transform="translate(783,597)"/>
<path d="M0 0 C3.02575673 5.44636211 3.13866938 10.68965365 3.0625 16.8125 C3.05798828 17.50537109 3.05347656 18.19824219 3.04882812 18.91210938 C3.03713156 20.60811068 3.01919924 22.30406703 3 24 C2.67 24 2.34 24 2 24 C1.67 19.71 1.34 15.42 1 11 C0.67 14.63 0.34 18.26 0 22 C-0.33 22 -0.66 22 -1 22 C-1.22201613 19.0837882 -1.42808498 16.16792256 -1.625 13.25 C-1.72167969 12.0125 -1.72167969 12.0125 -1.8203125 10.75 C-1.871875 9.95078125 -1.9234375 9.1515625 -1.9765625 8.328125 C-2.02893066 7.5949707 -2.08129883 6.86181641 -2.13525391 6.10644531 C-1.97767085 3.65224559 -1.22264839 2.11146787 0 0 Z " fill="#CFD0D0" transform="translate(869,531)"/>
<path d="M0 0 C-0.99 0.495 -0.99 0.495 -2 1 C-1.67 1.66 -1.34 2.32 -1 3 C-3.45275141 4.2263757 -5.0505781 4.11415314 -7.7890625 4.09765625 C-8.73007812 4.09443359 -9.67109375 4.09121094 -10.640625 4.08789062 C-11.62546875 4.07951172 -12.6103125 4.07113281 -13.625 4.0625 C-14.61757813 4.05798828 -15.61015625 4.05347656 -16.6328125 4.04882812 C-19.0886016 4.03702145 -21.54427104 4.020554 -24 4 C-24 3.67 -24 3.34 -24 3 C-17.4 3 -10.8 3 -4 3 C-4 2.34 -4 1.68 -4 1 C-10.6 1 -17.2 1 -24 1 C-24 0.67 -24 0.34 -24 0 C-20.75052139 -0.19738568 -17.50041127 -0.3811754 -14.25 -0.5625 C-13.32960938 -0.61857422 -12.40921875 -0.67464844 -11.4609375 -0.73242188 C-10.57148437 -0.78076172 -9.68203125 -0.82910156 -8.765625 -0.87890625 C-7.94868164 -0.9260376 -7.13173828 -0.97316895 -6.29003906 -1.02172852 C-4.02117925 -1.00020095 -2.16679079 -0.64612135 0 0 Z " fill="#969796" transform="translate(827,603)"/>
<path d="M0 0 C0.33 0 0.66 0 1 0 C1.02903577 3.10414702 1.0468107 6.20825909 1.0625 9.3125 C1.07087891 10.19357422 1.07925781 11.07464844 1.08789062 11.98242188 C1.09111328 12.82998047 1.09433594 13.67753906 1.09765625 14.55078125 C1.10289307 15.33106689 1.10812988 16.11135254 1.11352539 16.9152832 C1 19 1 19 0 22 C-0.66 22 -1.32 22 -2 22 C-2.13711613 14.97660718 -2.02354874 7.96265875 -1 1 C-0.67 0.67 -0.34 0.34 0 0 Z " fill="#FAFAFA" transform="translate(870,541)"/>
<path d="M0 0 C9.57 0 19.14 0 29 0 C28.67 0.99 28.34 1.98 28 3 C28 2.34 28 1.68 28 1 C15.625 1.495 15.625 1.495 3 2 C2.34 3.65 1.68 5.3 1 7 C0.67 7 0.34 7 0 7 C0 4.69 0 2.38 0 0 Z " fill="#3A3839" transform="translate(252,558)"/>
<path d="M0 0 C1.25039063 0.00322266 2.50078125 0.00644531 3.7890625 0.00976562 C5.74199219 0.02233398 5.74199219 0.02233398 7.734375 0.03515625 C9.71050781 0.04192383 9.71050781 0.04192383 11.7265625 0.04882812 C14.97921241 0.06061309 18.23177084 0.07706614 21.484375 0.09765625 C21.484375 0.42765625 21.484375 0.75765625 21.484375 1.09765625 C20.31865967 1.13524048 20.31865967 1.13524048 19.12939453 1.17358398 C15.62254431 1.28932421 12.11597755 1.41214977 8.609375 1.53515625 C7.38605469 1.57447266 6.16273438 1.61378906 4.90234375 1.65429688 C3.15244141 1.71713867 3.15244141 1.71713867 1.3671875 1.78125 C0.28840332 1.81790771 -0.79038086 1.85456543 -1.90185547 1.89233398 C-4.49632036 1.93142268 -4.49632036 1.93142268 -6.515625 3.09765625 C-8.640625 2.16015625 -8.640625 2.16015625 -10.515625 1.09765625 C-6.97374222 -0.00063144 -3.6946488 -0.01679386 0 0 Z " fill="#565656" transform="translate(304.515625,458.90234375)"/>
<path d="M0 0 C0.33 0 0.66 0 1 0 C1 5.61 1 11.22 1 17 C0.67 17 0.34 17 0 17 C-0.33 13.7 -0.66 10.4 -1 7 C-2.32 7.33 -3.64 7.66 -5 8 C-3.6299034 5.0490227 -2.06764583 2.51713405 0 0 Z " fill="#D3D3D3" transform="translate(534,587)"/>
<path d="M0 0 C0.66 0.33 1.32 0.66 2 1 C1.67 1.99 1.34 2.98 1 4 C-0.65 4.33 -2.3 4.66 -4 5 C-4 4.34 -4 3.68 -4 3 C-6.97 3 -9.94 3 -13 3 C-13 2.67 -13 2.34 -13 2 C-12.22914063 1.93941406 -11.45828125 1.87882813 -10.6640625 1.81640625 C-9.15972656 1.69072266 -9.15972656 1.69072266 -7.625 1.5625 C-6.62726562 1.48128906 -5.62953125 1.40007813 -4.6015625 1.31640625 C-2.02072387 1.15034374 -2.02072387 1.15034374 0 0 Z " fill="#C6C6C6" transform="translate(820,574)"/>
<path d="M0 0 C0.33 0 0.66 0 1 0 C1 1.65 1 3.3 1 5 C1.66 5 2.32 5 3 5 C2.67 6.65 2.34 8.3 2 10 C1.34 10 0.68 10 0 10 C-0.66 10.66 -1.32 11.32 -2 12 C-1.33333333 8 -0.66666667 4 0 0 Z " fill="#D8D9D9" transform="translate(867,558)"/>
<path d="M0 0 C0.33 0.66 0.66 1.32 1 2 C0.07544441 3.508013 -0.8650747 5.00624917 -1.8125 6.5 C-2.33457031 7.3353125 -2.85664062 8.170625 -3.39453125 9.03125 C-3.92433594 9.6809375 -4.45414063 10.330625 -5 11 C-5.99 11 -6.98 11 -8 11 C-5.36 7.37 -2.72 3.74 0 0 Z " fill="#2C2D2D" transform="translate(1015,239)"/>
<path d="M0 0 C2.625 0.375 2.625 0.375 5 1 C4.01 1.495 4.01 1.495 3 2 C3 2.66 3 3.32 3 4 C3.99 4.33 4.98 4.66 6 5 C0.25 4.25 0.25 4.25 -2 2 C-1.34 1.34 -0.68 0.68 0 0 Z " fill="#B5B5B5" transform="translate(793,601)"/>
<path d="M0 0 C1.32 0.66 2.64 1.32 4 2 C2.75 3.5625 2.75 3.5625 1 5 C-1.1875 4.6875 -1.1875 4.6875 -3 4 C-2.01 2.68 -1.02 1.36 0 0 Z " fill="#262627" transform="translate(822,525)"/>
<path d="M0 0 C1.32 0.66 2.64 1.32 4 2 C4 3.32 4 4.64 4 6 C2.35 4.35 0.7 2.7 -1 1 C-0.67 0.67 -0.34 0.34 0 0 Z " fill="#DCDCDC" transform="translate(794,569)"/>
<path d="M0 0 C0.33 0.99 0.66 1.98 1 3 C-0.40445835 5.2636564 -2.1967913 7.0208685 -4 9 C-4.66 8.67 -5.32 8.34 -6 8 C-4.02 5.36 -2.04 2.72 0 0 Z " fill="#282829" transform="translate(985,283)"/>
</svg>
